<svg xmlns="http://www.w3.org/2000/svg" xmlns:xlink="http://www.w3.org/1999/xlink" width="200.493" height="184.249" viewBox="0 0 200.493 184.249"><defs><radialGradient id="a" cx="0.494" cy="0.496" r="0.622" gradientTransform="translate(-126.107) scale(0.691 1)" gradientUnits="objectBoundingBox"><stop offset="0" stop-color="#c2c2c2"/><stop offset="1" stop-color="#e9e9e9"/></radialGradient></defs><g transform="translate(-855.753 -259.751)"><g transform="translate(527 344)"><rect width="144" height="48" transform="translate(357 52)" fill="none"/><g transform="translate(296.839 51.934)"><g transform="translate(60.161 9.066)"><ellipse cx="71.722" cy="1.936" rx="71.722" ry="1.936" fill="#d9d9d9"/><path d="M54.977,37.94a.322.322,0,0,1-.2.071H51.663a.313.313,0,0,1-.178-.071.226.226,0,0,1-.1-.178V17.94c0-.059.036-.107.1-.178a.267.267,0,0,1,.178-.1h3.112a.293.293,0,0,1,.2.1.267.267,0,0,1,.1.178l-.024,7.1,8.824-7.66a.283.283,0,0,1,.4.024l1.948,2.162a.209.209,0,0,1-.024.321l-6.556,5.7a2.53,2.53,0,0,0-.048,3.777l7.15,6.532a.216.216,0,0,1,0,.321l-2.055,2.09c-.107.143-.238.143-.38,0l-9.24-8.587v8.04A.2.2,0,0,1,54.977,37.94Z" transform="translate(-50.962 -7.417)" fill="#d9d9d9"/><path d="M83.845,32.488a5.721,5.721,0,0,1-.511,2.435,5.461,5.461,0,0,1-1.425,1.853,6.346,6.346,0,0,1-2.185,1.188,8.71,8.71,0,0,1-2.791.416A8,8,0,0,1,74.416,38a6.871,6.871,0,0,1-2-1.021,6.7,6.7,0,0,1-1.449-1.449,7.5,7.5,0,0,1-.926-1.71c-.071-.2-.024-.321.166-.356l2.922-1.247a.259.259,0,0,1,.273.214,4.716,4.716,0,0,0,.546,1.057,4.923,4.923,0,0,0,.808.9,3.889,3.889,0,0,0,1.2.7A3.118,3.118,0,0,0,77,35.267a3.617,3.617,0,0,0,2.292-.713,2.334,2.334,0,0,0,.9-1.936,2.68,2.68,0,0,0-.7-1.924,6.593,6.593,0,0,0-1.758-1.259,19.762,19.762,0,0,0-2.3-.974,11.221,11.221,0,0,1-2.3-1.128,5.992,5.992,0,0,1-1.758-1.7,4.49,4.49,0,0,1-.7-2.637,5.5,5.5,0,0,1,.523-2.423A5.433,5.433,0,0,1,72.61,18.77a6.4,6.4,0,0,1,2.007-1.128,6.975,6.975,0,0,1,2.316-.392,9.972,9.972,0,0,1,2,.2,6.688,6.688,0,0,1,1.805.653,6.161,6.161,0,0,1,2.708,2.91.261.261,0,0,1,.024.214.256.256,0,0,1-.131.19L80.6,22.583c-.143.059-.249,0-.321-.166a3.031,3.031,0,0,0-.463-.713,4.066,4.066,0,0,0-.689-.665,3.3,3.3,0,0,0-.879-.475,3.038,3.038,0,0,0-1.057-.178,2.817,2.817,0,0,0-2.055.76,2.423,2.423,0,0,0-.784,1.793,1.786,1.786,0,0,0,.7,1.473,8.364,8.364,0,0,0,1.758,1.021c.7.309,1.473.618,2.292.95A10.928,10.928,0,0,1,81.4,27.618a6.273,6.273,0,0,1,1.758,1.9A5.843,5.843,0,0,1,83.845,32.488Z" transform="translate(-47.468 -7.428)" fill="#d9d9d9"/><path d="M92.931,37.883a.257.257,0,0,1-.166.071H89.618a.251.251,0,0,1-.249-.249V25.817a5.056,5.056,0,0,0-5.059-5.059h-.059a.225.225,0,0,1-.166-.083.253.253,0,0,1-.083-.19v-2.6a.313.313,0,0,1,.071-.178.226.226,0,0,1,.178-.1H98.062a.268.268,0,0,1,.19.1.247.247,0,0,1,.083.178v2.6a.269.269,0,0,1-.273.273h0A5.056,5.056,0,0,0,93,25.817V37.7A.178.178,0,0,1,92.931,37.883Z" transform="translate(-44.843 -7.361)" fill="#d9d9d9"/><path d="M99.95,33.057l-1.924,5.178c-.071.166-.2.2-.38.131l-2.767-.95a.354.354,0,0,1-.166-.428l7.043-18.634a1.389,1.389,0,0,1,.713-.736,2.654,2.654,0,0,1,1.14-.238,2.841,2.841,0,0,1,1.14.238,1.275,1.275,0,0,1,.713.736L112.5,36.988a.341.341,0,0,1-.166.428l-2.767.95c-.2.071-.321.024-.38-.131l-1.924-5.178H99.95Zm5.4-5.107-1.746-4.632-1.734,4.644a1.459,1.459,0,0,0,1.366,1.971h.748A1.472,1.472,0,0,0,105.354,27.95Z" transform="translate(-42.836 -7.404)" fill="#d9d9d9"/><path d="M129.529,27.788a10.673,10.673,0,0,1-.8,4.216,9.244,9.244,0,0,1-2.2,3.195,9.657,9.657,0,0,1-3.278,2.031,11.308,11.308,0,0,1-4.026.713h-5.879a.313.313,0,0,1-.178-.071.226.226,0,0,1-.1-.178V17.883c0-.059.036-.107.1-.178a.225.225,0,0,1,.178-.1h5.879a11.308,11.308,0,0,1,4.026.713,9.685,9.685,0,0,1,3.278,2.043,9.575,9.575,0,0,1,2.2,3.207A10.93,10.93,0,0,1,129.529,27.788Zm-3.658,0a6.833,6.833,0,0,0-1.9-5.249,7.417,7.417,0,0,0-5.285-1.793h0a1.924,1.924,0,0,0-1.924,1.924V32.883a1.924,1.924,0,0,0,1.924,1.924h0a7.384,7.384,0,0,0,5.285-1.793A6.812,6.812,0,0,0,125.871,27.788Z" transform="translate(-39.386 -7.361)" fill="#d9d9d9"/><path d="M133.251,37.954h-3.112a.251.251,0,0,1-.249-.249V17.883a.313.313,0,0,1,.071-.178.225.225,0,0,1,.178-.1h3.112a.238.238,0,0,1,.2.1.285.285,0,0,1,.071.178V37.7C133.524,37.871,133.429,37.954,133.251,37.954Z" transform="translate(-36.232 -7.361)" fill="#d9d9d9"/><path d="M151.588,33.916a6.576,6.576,0,0,1-1.639,2.3,7.48,7.48,0,0,1-2.447,1.473,8.455,8.455,0,0,1-3.029.523,8.723,8.723,0,0,1-3.029-.523,7.5,7.5,0,0,1-2.435-1.473,6.864,6.864,0,0,1-1.627-2.3,7.455,7.455,0,0,1-.594-3V17.883c0-.059.036-.107.1-.178a.225.225,0,0,1,.178-.1h3.112a.293.293,0,0,1,.2.1.267.267,0,0,1,.1.178V30.912a4.251,4.251,0,0,0,1.093,3.076,3.892,3.892,0,0,0,2.91,1.128,4,4,0,0,0,2.957-1.128,4.2,4.2,0,0,0,1.116-3.076V17.883a.269.269,0,0,1,.083-.178.244.244,0,0,1,.166-.1h3.147a.268.268,0,0,1,.19.1.248.248,0,0,1,.083.178V30.912A7.937,7.937,0,0,1,151.588,33.916Z" transform="translate(-34.937 -7.361)" fill="#d9d9d9"/><path d="M171.215,17.623a3.027,3.027,0,0,1,1.342-.19,2.746,2.746,0,0,1,1.223.38,1.02,1.02,0,0,1,.534.926V37.754a.214.214,0,0,1-.083.178.257.257,0,0,1-.166.071h-3.112c-.2,0-.3-.083-.3-.249V26.139L165.7,37.267a.321.321,0,0,1-.321.214h-2.969a.3.3,0,0,1-.321-.214l-4.952-11.128V37.754a.225.225,0,0,1-.1.178.322.322,0,0,1-.2.071h-3.112a.313.313,0,0,1-.178-.071.225.225,0,0,1-.1-.178V18.728a1.059,1.059,0,0,1,.523-.926,2.745,2.745,0,0,1,1.223-.38,3.1,3.1,0,0,1,1.354.19,1.505,1.505,0,0,1,.9.76l1.6,3.575a5.294,5.294,0,0,0,9.656.012l1.615-3.575A1.39,1.39,0,0,1,171.215,17.623Z" transform="translate(-31.809 -7.398)" fill="#d9d9d9"/></g></g></g><g transform="translate(856 260)"><path d="M202.068,12.6a10.733,10.733,0,0,0-2.208-3.146,2.3,2.3,0,0,0-1.521-.934,2.618,2.618,0,0,0-1.521.737A151.138,151.138,0,0,1,130.97,41.409a146.189,146.189,0,0,1-28.557,2.9,146.19,146.19,0,0,1-28.557-2.9A150.615,150.615,0,0,1,8.01,9.261,2.46,2.46,0,0,0,6.39,8.523a2.651,2.651,0,0,0-1.521.934A10.574,10.574,0,0,0,2.711,12.6a3.3,3.3,0,0,0-.049,2.8,6.417,6.417,0,0,0,1.276,1.573C12.426,25.187,20.963,33.3,29.4,41.556c8.783,8.6,16.83,18.089,22.325,29.2C62.081,91.6,66.153,116.42,65.859,139.573c3.974.836,20.853,1.426,36.358,8.848l.147.1.2-.1c15.5-7.423,32.384-8.012,36.358-8.848-.245-23.2,3.827-48.025,14.131-68.818,5.5-11.109,13.542-20.547,22.325-29.2,8.439-8.258,16.977-16.418,25.465-24.578a5,5,0,0,0,1.276-1.573A3.7,3.7,0,0,0,202.068,12.6Zm-.393,2.359a8.672,8.672,0,0,1-.932,1.131c-2.306,2.212-4.956,4.67-7.262,6.882-2.4,2.31-4.809,4.621-7.262,6.882-13.64,12.633-24.877,22.956-34,40.259-8.292,15.73-12.954,34.065-14.524,51.761-.491,5.456-.687,10.962-.687,16.467-.736.1-1.619.2-2.6.344a107.492,107.492,0,0,0-32.04,8.946,110.979,110.979,0,0,0-32.04-8.946c-1.03-.1-1.914-.246-2.6-.344,0-5.505-.2-10.962-.687-16.467-1.521-17.7-6.231-36.031-14.475-51.761-9.077-17.3-20.363-27.626-34-40.259C16.106,27.6,13.7,25.236,11.3,22.975c-2.306-2.212-4.956-4.67-7.262-6.882A3.275,3.275,0,0,1,3.1,14.963a1.707,1.707,0,0,1,.049-1.573,10.5,10.5,0,0,1,2.012-3.2.664.664,0,0,1,.932-.147l.1.1c19.578,16.271,43.08,35.441,67.221,40.406a148,148,0,0,0,29,2.949,148,148,0,0,0,29-2.949c24.141-4.965,47.594-24.136,67.221-40.406.049,0,.049-.049.1-.1a.663.663,0,0,1,.932.147,10.5,10.5,0,0,1,2.012,3.2A2.021,2.021,0,0,1,201.675,14.963Z" transform="translate(-2.371 -8.519)" fill="#f5f5f5" stroke="#f5f5f5" stroke-width="0.5"/><path d="M199.122,9.11a.664.664,0,0,0-.932-.147l-.1.1c-19.574,16.262-43.072,35.422-67.208,40.384a148.026,148.026,0,0,1-28.993,2.948A148.025,148.025,0,0,1,72.9,49.445C48.762,44.483,25.313,25.323,5.69,9.061c-.049,0-.049-.049-.1-.1-.1-.147-.491-.295-.883.1A12.315,12.315,0,0,0,2.7,12.254a1.706,1.706,0,0,0-.049,1.572,8.67,8.67,0,0,0,.932,1.13c2.306,2.211,4.955,4.667,7.26,6.878,2.4,2.309,4.808,4.618,7.26,6.878,13.638,12.626,24.872,22.943,34,40.237C60.388,84.671,65.049,103,66.57,120.683c.491,5.453.687,10.956.687,16.458.687.1,1.619.2,2.6.344a107.5,107.5,0,0,1,32.034,8.942,110.989,110.989,0,0,1,32.034-8.942c1.03-.1,1.913-.246,2.6-.344,0-5.5.2-10.956.687-16.458,1.521-17.687,6.23-36.012,14.521-51.733,9.076-17.294,20.359-27.611,34-40.237,2.453-2.26,4.857-4.618,7.26-6.878,2.306-2.211,4.955-4.667,7.26-6.878a3.792,3.792,0,0,0,.932-1.13,1.9,1.9,0,0,0-.049-1.572A12.7,12.7,0,0,0,199.122,9.11ZM101.891,62.022a1.867,1.867,0,1,1-1.864,1.867A1.865,1.865,0,0,1,101.891,62.022Zm-32.329,8.4a2.162,2.162,0,1,1,2.159-2.162A2.179,2.179,0,0,1,69.562,70.423ZM117.2,115.966a135.861,135.861,0,0,1-14.276.442h-2.06c-7.015,0-11.479-.049-14.276-.442C82.464,97.887,77.362,81.33,71.868,71.7c-.049-.1.049-.049.147,0A26.5,26.5,0,0,0,85.7,75.828,19.879,19.879,0,0,0,101.94,67.77a19.81,19.81,0,0,0,16.238,8.057A26.63,26.63,0,0,0,131.865,71.7c.1-.049.2-.1.147,0C126.419,81.33,121.317,97.887,117.2,115.966Zm17.072-45.838a1.867,1.867,0,1,1,1.864-1.867A1.865,1.865,0,0,1,134.268,70.129Z" transform="translate(-1.897 -7.34)" fill="url(#a)"/><path d="M67.887,30.73c-2.993.457-7.965.507-16.286.507h-.1c-8.321,0-13.293-.051-16.286-.507L15.68,51.988c.71.1,1.674.2,2.689.355A111.309,111.309,0,0,1,51.5,61.577a114.921,114.921,0,0,1,33.13-9.234c1.065-.1,1.979-.254,2.689-.355Z" transform="translate(48.446 77.459)" fill="#f5f5f5"/><path d="M88.886,34.93c-.761.1-1.674.2-2.689.355a111.307,111.307,0,0,0-33.13,9.234,114.918,114.918,0,0,0-33.13-9.234c-1.065-.1-1.979-.254-2.689-.355L15.32,36.2c4.16.862,21.512,1.471,37.595,9.132l.152.1.2-.1C69.353,37.67,86.7,37.061,90.865,36.2Z" transform="translate(46.973 94.568)" fill="#9f9f9f"/><path d="M78.73,21.62C72.337,34.2,68.583,47.85,64.017,67.891c-2.993.457-8.016.507-16.286.507h-.1c-8.321,0-13.293-.051-16.337-.457-.558-2.486-1.116-4.972-1.624-7.255-.254-1.167-.558-2.283-.812-3.4-.152-.558-.254-1.116-.406-1.674-.254-1.116-.558-2.182-.812-3.247-.66-2.638-1.37-5.175-2.08-7.56C25,42.878,24.393,41,23.834,39.174c-.3-.913-.609-1.776-.913-2.689-.913-2.638-1.877-5.175-2.943-7.661-.507-1.218-1.065-2.435-1.624-3.653s-1.116-2.385-1.725-3.551c5.682,9.944,11.01,27.042,15.221,45.713a140.705,140.705,0,0,0,14.764.457h2.131c7.306,0,11.872-.051,14.764-.457C67.771,48.611,73.048,31.513,78.73,21.62Z" transform="translate(52.314 41.788)" fill="#fff"/><path d="M201.435,9.82a8.66,8.66,0,0,1-.932,1.129c-2.306,2.209-4.955,4.663-7.261,6.871-2.4,2.307-4.808,4.613-7.261,6.871-13.639,12.613-24.874,22.92-34,40.2-8.291,15.705-12.952,34.012-14.522,51.681-.491,5.448-.687,10.945-.687,16.442-.736.1-1.619.2-2.6.344a107.605,107.605,0,0,0-32.037,8.932A111.1,111.1,0,0,0,70.1,133.353c-1.03-.1-1.913-.245-2.6-.344,0-5.5-.2-10.945-.687-16.442C65.288,98.9,60.578,80.593,52.336,64.887c-9.076-17.276-20.361-27.583-34-40.2-2.453-2.258-4.857-4.613-7.261-6.871-2.306-2.209-4.955-4.663-7.261-6.871A3.789,3.789,0,0,1,2.882,9.82l-.442.442a6.408,6.408,0,0,0,1.276,1.571c8.488,8.2,17.024,16.294,25.463,24.54C37.961,44.961,46.007,54.433,51.5,65.525c10.352,20.81,14.424,45.595,14.13,68.711,3.974.834,20.851,1.423,36.355,8.834l.147.1.2-.1c15.5-7.411,32.381-8,36.355-8.834-.245-23.166,3.827-47.951,14.13-68.711,5.495-11.092,13.541-20.515,22.323-29.153,8.439-8.245,16.975-16.393,25.463-24.54a4.994,4.994,0,0,0,1.276-1.571Z" transform="translate(-2.089 -3.22)" fill="#aaa"/></g></g></svg>