<svg xmlns="http://www.w3.org/2000/svg" width="126" height="42" viewBox="0 0 126 42"><g transform="translate(-357 -52)"><rect width="126" height="42" transform="translate(357 52)" fill="none"/><g transform="translate(357 55.17)"><path d="M54.523,35.332a.282.282,0,0,1-.176.062H51.629a.273.273,0,0,1-.156-.062.2.2,0,0,1-.083-.156V17.86c0-.052.031-.093.083-.156a.233.233,0,0,1,.156-.083h2.718a.256.256,0,0,1,.176.083.233.233,0,0,1,.083.156l-.021,6.2,7.709-6.692a.247.247,0,0,1,.353.021l1.7,1.888a.182.182,0,0,1-.021.28L58.6,24.542a2.21,2.21,0,0,0-.042,3.3l6.246,5.707a.188.188,0,0,1,0,.28l-1.795,1.826c-.093.125-.208.125-.332,0l-8.072-7.5v7.024A.172.172,0,0,1,54.523,35.332Z" transform="translate(-51.016 -8.667)" fill="#d9d9d9"/><path d="M82.1,30.562a5,5,0,0,1-.446,2.127,4.771,4.771,0,0,1-1.245,1.619A5.544,5.544,0,0,1,78.5,35.345a7.609,7.609,0,0,1-2.438.363,6.991,6.991,0,0,1-2.2-.332,6,6,0,0,1-1.743-.892,5.857,5.857,0,0,1-1.266-1.266,6.551,6.551,0,0,1-.809-1.494c-.062-.176-.021-.28.145-.311l2.552-1.089a.226.226,0,0,1,.239.187,4.12,4.12,0,0,0,.477.923,4.3,4.3,0,0,0,.706.789,3.4,3.4,0,0,0,1.048.612,2.724,2.724,0,0,0,.913.156,3.16,3.16,0,0,0,2-.623,2.039,2.039,0,0,0,.789-1.691A2.341,2.341,0,0,0,78.3,29a5.76,5.76,0,0,0-1.536-1.1,17.265,17.265,0,0,0-2.013-.851,9.8,9.8,0,0,1-2.013-.986A5.235,5.235,0,0,1,71.2,24.575a3.923,3.923,0,0,1-.612-2.3,4.8,4.8,0,0,1,.457-2.117,4.747,4.747,0,0,1,1.235-1.577,5.6,5.6,0,0,1,1.753-.986,6.094,6.094,0,0,1,2.023-.342,8.712,8.712,0,0,1,1.743.176A5.842,5.842,0,0,1,79.379,18a5.383,5.383,0,0,1,2.366,2.542.228.228,0,0,1,.021.187.224.224,0,0,1-.114.166l-2.386,1.017c-.125.052-.218,0-.28-.145a2.648,2.648,0,0,0-.4-.623,3.552,3.552,0,0,0-.6-.581,2.883,2.883,0,0,0-.768-.415,2.654,2.654,0,0,0-.923-.156,2.461,2.461,0,0,0-1.795.664,2.117,2.117,0,0,0-.685,1.567,1.56,1.56,0,0,0,.612,1.287,7.307,7.307,0,0,0,1.536.892c.612.27,1.287.54,2,.83a9.547,9.547,0,0,1,2,1.079,5.481,5.481,0,0,1,1.536,1.66A5.1,5.1,0,0,1,82.1,30.562Z" transform="translate(-50.317 -8.669)" fill="#d9d9d9"/><path d="M91.8,35.321a.224.224,0,0,1-.145.062h-2.75a.219.219,0,0,1-.218-.218V24.78a4.417,4.417,0,0,0-4.42-4.42h-.052a.2.2,0,0,1-.145-.073A.221.221,0,0,1,84,20.121V17.849a.273.273,0,0,1,.062-.156.2.2,0,0,1,.156-.083H96.285a.234.234,0,0,1,.166.083.216.216,0,0,1,.073.156v2.272a.235.235,0,0,1-.239.239h0a4.417,4.417,0,0,0-4.42,4.42V35.166A.155.155,0,0,1,91.8,35.321Z" transform="translate(-49.792 -8.656)" fill="#d9d9d9"/><path d="M99.286,31.076,97.605,35.6c-.062.145-.176.176-.332.114l-2.418-.83a.309.309,0,0,1-.145-.374l6.153-16.279a1.214,1.214,0,0,1,.623-.643,2.318,2.318,0,0,1,1-.208,2.482,2.482,0,0,1,1,.208,1.114,1.114,0,0,1,.623.643l6.153,16.279a.3.3,0,0,1-.145.374l-2.418.83c-.176.062-.28.021-.332-.114l-1.681-4.524H99.286Zm4.721-4.462-1.525-4.046-1.515,4.057a1.275,1.275,0,0,0,1.193,1.722h.654A1.286,1.286,0,0,0,104.007,26.614Z" transform="translate(-49.39 -8.664)" fill="#d9d9d9"/><path d="M127.45,26.5a9.324,9.324,0,0,1-.7,3.683,8.076,8.076,0,0,1-1.919,2.791,8.436,8.436,0,0,1-2.864,1.774,9.879,9.879,0,0,1-3.517.623h-5.136a.273.273,0,0,1-.156-.062.2.2,0,0,1-.083-.156V17.849c0-.052.031-.093.083-.156a.2.2,0,0,1,.156-.083h5.136a9.879,9.879,0,0,1,3.517.623,8.461,8.461,0,0,1,2.864,1.785,8.365,8.365,0,0,1,1.919,2.8A9.549,9.549,0,0,1,127.45,26.5Zm-3.2,0a5.97,5.97,0,0,0-1.66-4.586,6.48,6.48,0,0,0-4.617-1.567h0A1.68,1.68,0,0,0,116.3,22.03v8.923a1.68,1.68,0,0,0,1.681,1.681h0a6.451,6.451,0,0,0,4.617-1.567A5.951,5.951,0,0,0,124.255,26.5Z" transform="translate(-48.699 -8.656)" fill="#d9d9d9"/><path d="M132.826,35.383h-2.718a.219.219,0,0,1-.218-.218V17.849a.273.273,0,0,1,.062-.156.2.2,0,0,1,.156-.083h2.718a.208.208,0,0,1,.176.083.249.249,0,0,1,.062.156V35.166C133.065,35.311,132.982,35.383,132.826,35.383Z" transform="translate(-48.068 -8.656)" fill="#d9d9d9"/><path d="M149.718,31.856a5.745,5.745,0,0,1-1.432,2.013,6.534,6.534,0,0,1-2.137,1.287,7.387,7.387,0,0,1-2.646.457,7.62,7.62,0,0,1-2.646-.457,6.556,6.556,0,0,1-2.127-1.287,6,6,0,0,1-1.421-2.013,6.513,6.513,0,0,1-.519-2.625V17.849c0-.052.031-.093.083-.156a.2.2,0,0,1,.156-.083h2.718a.256.256,0,0,1,.176.083.233.233,0,0,1,.083.156V29.231a3.714,3.714,0,0,0,.955,2.687,3.4,3.4,0,0,0,2.542.986,3.5,3.5,0,0,0,2.584-.986,3.665,3.665,0,0,0,.975-2.687V17.849a.235.235,0,0,1,.073-.156.213.213,0,0,1,.145-.083h2.75a.234.234,0,0,1,.166.083.216.216,0,0,1,.073.156V29.231A6.934,6.934,0,0,1,149.718,31.856Z" transform="translate(-47.809 -8.656)" fill="#d9d9d9"/><path d="M168.972,17.6a2.645,2.645,0,0,1,1.172-.166,2.4,2.4,0,0,1,1.069.332.891.891,0,0,1,.467.809V35.183a.187.187,0,0,1-.073.156.224.224,0,0,1-.145.062h-2.718c-.176,0-.259-.073-.259-.218V25.036l-4.327,9.722a.281.281,0,0,1-.28.187h-2.594a.264.264,0,0,1-.28-.187l-4.327-9.722V35.183a.2.2,0,0,1-.083.156.282.282,0,0,1-.176.062H153.7a.273.273,0,0,1-.156-.062.2.2,0,0,1-.083-.156V18.562a.925.925,0,0,1,.457-.809,2.4,2.4,0,0,1,1.069-.332,2.712,2.712,0,0,1,1.183.166,1.315,1.315,0,0,1,.789.664l1.4,3.123a4.625,4.625,0,0,0,8.435.01l1.411-3.123A1.214,1.214,0,0,1,168.972,17.6Z" transform="translate(-47.183 -8.663)" fill="#d9d9d9"/></g></g></svg>